Coordinates
version=1
nRows=13
nColumns=40
inDegrees=yes

Units are S.I. units (second, meters, Newtons, ...)
If the header above contains a line with 'inDegrees', this indicates whether rotational values are in degrees (yes) or radians (no).

endheader
time	pelvis_tilt	pelvis_list	pelvis_rotation	pelvis_tx	pelvis_ty	pelvis_tz	hip_flexion_r	hip_adduction_r	hip_rotation_r	knee_angle_r	knee_angle_r_beta	ankle_angle_r	subtalar_angle_r	mtp_angle_r	hip_flexion_l	hip_adduction_l	hip_rotation_l	knee_angle_l	knee_angle_l_beta	ankle_angle_l	subtalar_angle_l	mtp_angle_l	lumbar_extension	lumbar_bending	lumbar_rotation	arm_flex_r	arm_add_r	arm_rot_r	elbow_flex_r	pro_sup_r	wrist_flex_r	wrist_dev_r	arm_flex_l	arm_add_l	arm_rot_l	elbow_flex_l	pro_sup_l	wrist_flex_l	wrist_dev_l
     20.15000000	     16.48588047	     -3.08813742	    156.50440660	      0.37759222	      0.91643679	     -0.65237252	     41.06399858	     11.40017148	     19.01509564	     16.89175561	      0.29481675	    -11.30959160	      0.00000000	      0.00000000	     39.42984487	    -22.01449684	    -31.15162579	     31.61056822	      0.55170849	      1.16446134	      0.00000000	      0.00000000	    -64.54817790	    -18.08838797	    -89.94441213	    -89.93335138	     89.99365566	    -89.93340779	      0.01959189	     89.84720581	      0.00000000	      0.00000000	    -78.43764440	      3.02299247	    -89.92162098	     76.70460601	     39.34390023	      0.00000000	      0.00000000
     20.15500000	     16.67993709	     -3.06612454	    156.46448708	      0.37771906	      0.91581513	     -0.65278914	     41.22799303	     11.53106510	     18.94634571	     16.85413714	      0.29416019	    -11.27275423	      0.00000000	      0.00000000	     39.65187167	    -22.17399348	    -31.11048163	     31.69821057	      0.55323814	      1.24078559	      0.00000000	      0.00000000	    -64.71550715	    -18.18064455	    -89.94412683	    -89.93353922	     89.99364987	    -89.93358125	      0.01955682	     89.84531872	      0.00000000	      0.00000000	    -78.84751929	      2.77804158	    -89.92289197	     76.58413417	     39.32272483	      0.00000000	      0.00000000
     20.16000000	     17.77650687	     -4.48325591	    154.75158572	      0.38096603	      0.91162768	     -0.65605515	     43.20197365	     12.31858740	     21.26582975	     17.60397495	      0.30724732	    -11.26627218	      0.00000000	      0.00000000	     40.83376890	    -23.02524033	    -33.17942730	     32.50297425	      0.56728392	      1.56409430	      0.00000000	      0.00000000	    -63.23056421	    -20.50203019	    -89.94284554	    -89.93334817	     89.99362720	    -89.93338389	      0.01966445	     89.84520486	      0.00000000	      0.00000000	    -79.21534833	      2.63741496	    -89.92296832	     76.40539644	     39.02520736	      0.00000000	      0.00000000
     20.16500000	     17.98229099	     -4.44876987	    154.64704169	      0.38107583	      0.91099290	     -0.65648265	     43.34391536	     12.46723632	     21.12371385	     17.52795676	      0.30592056	    -11.22769210	      0.00000000	      0.00000000	     41.04843522	    -23.23931115	    -33.13285930	     32.57742902	      0.56858340	      1.65007862	      0.00000000	      0.00000000	    -63.39239419	    -20.63941869	    -89.94248809	    -89.93334945	     89.99361103	    -89.93340418	      0.01966781	     89.84418170	      0.00000000	      0.00000000	    -79.62644182	      2.45426899	    -89.92396433	     76.31338894	     39.00083641	      0.00000000	      0.00000000
     20.17000000	     18.97870012	     -5.59227031	    153.32966002	      0.38388684	      0.90710111	     -0.65897596	     45.04498237	     13.17413701	     22.72230452	     18.06080938	      0.31522059	    -11.28075376	      0.00000000	      0.00000000	     42.24653115	    -24.06888726	    -34.61861087	     33.45424990	      0.58388681	      2.05482707	      0.00000000	      0.00000000	    -62.10017448	    -22.46555064	    -89.94070127	    -89.93294374	     89.99357183	    -89.93299928	      0.01984277	     89.84365050	      0.00000000	      0.00000000	    -79.97972859	      2.44941994	    -89.92407034	     76.21435635	     38.54455122	      0.00000000	      0.00000000
     20.17500000	     19.37270323	     -5.65047543	    153.18125602	      0.38442038	      0.90562361	     -0.65941993	     45.52450548	     13.40782234	     22.56644183	     18.12365019	      0.31631737	    -11.31028671	      0.00000000	      0.00000000	     42.85448409	    -24.46949794	    -34.57583521	     33.92643266	      0.59212795	      2.26160019	      0.00000000	      0.00000000	    -61.97408986	    -22.66573937	    -89.93994974	    -89.93282418	     89.99355037	    -89.93287118	      0.01987809	     89.84170126	      0.00000000	      0.00000000	    -80.32665279	      2.36749363	    -89.92511922	     76.10582963	     38.46250440	      0.00000000	      0.00000000
     20.18000000	     20.00470806	     -6.15736382	    152.68508098	      0.38585232	      0.90310630	     -0.66044876	     46.60332138	     13.77543838	     22.86932339	     18.58158463	      0.32430983	    -11.15103319	      0.00000000	      0.00000000	     43.69899310	    -24.92225052	    -34.99646473	     34.41151675	      0.60059427	      2.47508331	      0.00000000	      0.00000000	    -61.37659583	    -23.41069845	    -89.93918683	    -89.93269302	     89.99353157	    -89.93273651	      0.01992375	     89.84053315	      0.00000000	      0.00000000	    -80.64778601	      2.28753055	    -89.92587046	     76.03331174	     38.09216923	      0.00000000	      0.00000000
     20.18500000	     20.17587112	     -6.14353890	    152.53214481	      0.38611172	      0.90223232	     -0.66097891	     46.75157162	     13.93585919	     22.70359702	     18.52130017	      0.32325767	    -11.12509243	      0.00000000	      0.00000000	     43.90374287	    -25.18035784	    -34.94022626	     34.56770650	      0.60332029	      2.57506039	      0.00000000	      0.00000000	    -61.52760463	    -23.60914392	    -89.93890883	    -89.93281375	     89.99352301	    -89.93287874	      0.01988929	     89.83929565	      0.00000000	      0.00000000	    -81.02717207	      2.13146643	    -89.92728932	     75.94095086	     38.04647276	      0.00000000	      0.00000000
     20.19000000	     20.96373857	     -7.10282419	    151.57900239	      0.38854644	      0.89840849	     -0.66271443	     48.33186494	     14.52753720	     23.64475715	     19.30532871	      0.33694155	    -11.00685732	      0.00000000	      0.00000000	     45.01301616	    -25.94216598	    -36.01543893	     35.53316113	      0.62017066	      3.01897094	      0.00000000	      0.00000000	    -60.46706387	    -24.99560869	    -89.93680602	    -89.93273559	     89.99349797	    -89.93278591	      0.02000434	     89.83910727	      0.00000000	      0.00000000	    -81.27945055	      2.12704901	    -89.92816924	     75.91509852	     36.90741061	      0.00000000	      0.00000000
     20.19500000	     21.10864737	     -7.08320977	    151.47258214	      0.38879078	      0.89742847	     -0.66314125	     48.48776755	     14.66806060	     23.49704269	     19.30271515	      0.33689593	    -10.96947267	      0.00000000	      0.00000000	     45.23054726	    -26.19072834	    -35.95826867	     35.72615945	      0.62353911	      3.10947719	      0.00000000	      0.00000000	    -60.63781185	    -25.13412878	    -89.93633898	    -89.93295892	     89.99349370	    -89.93299606	      0.01996684	     89.83664488	      0.00000000	      0.00000000	    -81.62363371	      1.92463738	    -89.92946625	     75.79007502	     36.85348542	      0.00000000	      0.00000000
     20.20000000	     21.66828769	     -7.44218078	    151.23693428	      0.39007793	      0.89429994	     -0.66363115	     49.76057306	     15.01333129	     23.23177993	     20.30308178	      0.35435563	    -10.54773513	      0.00000000	      0.00000000	     46.29221130	    -26.76364219	    -36.11972590	     36.73829979	      0.64120429	      3.47467194	      0.00000000	      0.00000000	    -60.09372311	    -25.52301193	    -89.93451913	    -89.93312457	     89.99347601	    -89.93317554	      0.02003697	     89.83545813	      0.00000000	      0.00000000	    -81.79436613	      1.88719026	    -89.93067418	     75.71079196	     36.32404630	      0.00000000	      0.00000000
     20.20500000	     22.10782485	     -7.82062099	    150.93115952	      0.39119507	      0.89172277	     -0.66435612	     50.71312998	     15.32540656	     23.30383566	     20.94851689	      0.36562059	    -10.29727807	      0.00000000	      0.00000000	     47.02590052	    -27.20143467	    -36.37644038	     37.36441649	      0.65213209	      3.73415795	      0.00000000	      0.00000000	    -59.71277272	    -26.01329688	    -89.93364537	    -89.93330448	     89.99347158	    -89.93335839	      0.02002843	     89.83435244	      0.00000000	      0.00000000	    -82.03702071	      1.73942328	    -89.93159185	     75.60435551	     35.62439157	      0.00000000	      0.00000000
     20.21000000	     22.41035127	     -7.95300380	    150.78867317	      0.39187751	      0.88948956	     -0.66476991	     51.40695926	     15.60311214	     23.18436312	     21.52165591	      0.37562376	    -10.04080163	      0.00000000	      0.00000000	     47.63523143	    -27.66119522	    -36.45723981	     38.07011077	      0.66444878	      4.02111760	      0.00000000	      0.00000000	    -59.57975216	    -26.22183692	    -89.93263420	    -89.93346539	     89.99345819	    -89.93352788	      0.02005001	     89.83268298	      0.00000000	      0.00000000	    -82.30069214	      1.66136145	    -89.93246888	     75.56245629	     35.21559028	      0.00000000	      0.00000000
